<svg width="16" height="16" viewBox="0 0 16 16" fill="none" xmlns="http://www.w3.org/2000/svg">
<g clip-path="url(#clip0_9_2308)">
<path d="M14.3158 13.122C14.2381 13.122 14.1593 13.1027 14.0868 13.0619C13.861 12.9352 13.7808 12.6495 13.9075 12.4237C14.6631 11.0777 15.0625 9.54794 15.0625 7.99973C15.0625 6.45168 14.6632 4.92204 13.9077 3.57615C13.781 3.3504 13.8613 3.06464 14.087 2.93795C14.3128 2.8112 14.5985 2.89155 14.7252 3.11727C15.5592 4.603 16 6.29134 16 7.99976C16 9.70838 15.5591 11.3969 14.725 12.8827C14.639 13.0358 14.4798 13.122 14.3158 13.122Z" fill="#F6F6F6"/>
<path d="M12.6218 11.7869C12.551 11.7869 12.4792 11.7708 12.4117 11.7368C12.1803 11.6206 12.0871 11.3388 12.2034 11.1075C12.6914 10.1366 12.9389 9.09097 12.9389 7.9997C12.9389 6.90863 12.6915 5.86315 12.2036 4.89232C12.0873 4.66101 12.1806 4.37926 12.4119 4.263C12.6432 4.14669 12.925 4.24 13.0412 4.47135C13.5954 5.57399 13.8764 6.7611 13.8764 7.99974C13.8764 9.23856 13.5953 10.4258 13.041 11.5286C12.9587 11.6923 12.7934 11.7869 12.6218 11.7869Z" fill="#F6F6F6"/>
<path d="M10.9062 10.4346C10.8482 10.4346 10.7892 10.4237 10.7321 10.4008C10.4917 10.3045 10.375 10.0317 10.4712 9.79135C10.6996 9.22146 10.8153 8.61868 10.8153 7.99967C10.8153 7.38085 10.6996 6.77819 10.4714 6.2084C10.3752 5.96808 10.492 5.6952 10.7323 5.59898C10.9726 5.5027 11.2455 5.61955 11.3417 5.85986C11.6145 6.54099 11.7528 7.26094 11.7528 7.9997C11.7528 8.73865 11.6144 9.45875 11.3415 10.14C11.2681 10.3232 11.0922 10.4346 10.9062 10.4346Z" fill="#F6F6F6"/>
<path d="M4.16752 5.10217H1.40627C0.630851 5.10217 0 5.73302 0 6.50844V9.4916C0 10.267 0.630851 10.8979 1.40627 10.8979H4.0728L4.16752 5.10217Z" fill="#F6F6F6"/>
<path d="M9.24931 1.87062C9.08687 1.79258 8.89402 1.81462 8.75333 1.92727L5.10935 4.84537L5.00757 11.0731L8.75333 14.0728C8.83811 14.1406 8.9418 14.1756 9.04643 14.1756C9.1154 14.1756 9.18474 14.1604 9.24931 14.1294C9.41178 14.0514 9.51509 13.8871 9.51509 13.7069V2.29315C9.51509 2.1129 9.41178 1.94865 9.24931 1.87062Z" fill="#F6F6F6"/>
</g>
<defs>
<clipPath id="clip0_9_2308">
<rect width="16" height="16" fill="white"/>
</clipPath>
</defs>
</svg>
