<svg width="16" height="16" viewBox="0 0 16 16" fill="none" xmlns="http://www.w3.org/2000/svg">
<g clip-path="url(#clip0_9_2318)">
<path d="M3.86182 8.81961L3.86185 8.81973C3.87175 8.80973 3.8711 8.81033 3.86182 8.81961Z" fill="#F6F6F6"/>
<path d="M15.6453 6.6081L14.8496 6.41679C14.6766 5.66157 14.3787 4.94388 13.9622 4.27657L14.3654 3.59963C14.4753 3.4152 14.4455 3.17991 14.294 3.02841L12.9726 1.70701C12.8211 1.55598 12.5863 1.52576 12.4014 1.6356L11.7244 2.03882C11.0571 1.62232 10.3394 1.32435 9.5842 1.15135L9.39289 0.355727C9.3407 0.147477 9.15352 0.000976562 8.93839 0.000976562H7.06364C6.84852 0.000976562 6.66133 0.147445 6.60914 0.355727L6.41783 1.15135C5.66261 1.32435 4.94492 1.62232 4.27761 2.03882L3.60067 1.6356C3.41623 1.52573 3.18095 1.55551 3.02945 1.70701L1.70798 3.02838C1.55648 3.17988 1.52673 3.41513 1.63658 3.5996L2.0398 4.27654C1.6233 4.94385 1.32533 5.66154 1.15233 6.41676L0.356703 6.60807C0.148453 6.66026 0.00195312 6.84744 0.00195312 7.06257V8.93732C0.00195312 9.15244 0.148422 9.3401 0.357141 9.39182L1.15277 9.58313C1.26811 10.0836 1.4417 10.5644 1.66464 11.0255C2.00886 10.6799 3.73767 8.94363 3.86192 8.81954C3.8558 8.78798 3.78883 8.18763 3.78705 8.07069C3.74717 5.68235 5.67089 3.78216 8.0028 3.78216C10.3507 3.78216 12.2229 5.67535 12.214 8.01457C12.204 10.1779 10.5893 12.0196 8.3342 12.188C8.23664 12.1955 7.79558 12.2606 7.1808 12.1394L4.98108 14.3391C5.44045 14.5607 5.91942 14.7332 6.4178 14.8481L6.60911 15.6442C6.6613 15.8524 6.84848 15.9989 7.06361 15.9989H8.93836C9.15348 15.9989 9.34067 15.8525 9.39286 15.6442L9.58417 14.8486C10.3394 14.6756 11.0571 14.3776 11.7244 13.9611L12.4013 14.3643C12.5849 14.4742 12.8206 14.444 12.9725 14.2929L14.294 12.9715C14.4455 12.82 14.4752 12.5848 14.3654 12.4003L13.9621 11.7234C14.3791 11.056 14.6766 10.3384 14.8496 9.58266L15.6448 9.39182C15.8535 9.3401 16 9.15244 16 8.93732V7.06257C16 6.84748 15.8535 6.66026 15.6453 6.6081Z" fill="#F6F6F6"/>
<path d="M11.1725 7.14314C11.1313 6.98176 11.0067 6.85482 10.8461 6.81082C10.6855 6.76676 10.5139 6.81267 10.3961 6.93042L9.32655 8.00001C8.96096 8.36561 8.36665 8.36561 8.00102 8.00001C7.63577 7.63476 7.63577 7.03976 8.00102 6.67448L9.07102 5.60448C9.18877 5.48673 9.23424 5.31486 9.19021 5.15432C9.14615 4.99379 9.01937 4.86901 8.85802 4.82801C6.88033 4.32542 5.10058 5.61364 4.77418 7.39261C4.66937 7.97848 4.71605 8.56204 4.9078 9.09939C4.64112 9.36611 0.521928 13.4852 0.411209 13.596C-0.138509 14.1457 -0.138509 15.0401 0.419897 15.5985C0.973084 16.1229 1.8203 16.1449 2.40496 15.5898L6.90158 11.0932C7.62168 11.3502 8.42477 11.3449 9.21068 11.0676C10.6268 10.5679 11.6179 8.89098 11.1725 7.14314Z" fill="#F6F6F6"/>
</g>
<defs>
<clipPath id="clip0_9_2318">
<rect width="16" height="16" fill="white"/>
</clipPath>
</defs>
</svg>
