<svg width="12" height="12" viewBox="0 0 12 12" fill="none" xmlns="http://www.w3.org/2000/svg">
<g clip-path="url(#clip0_9_2363)">
<path d="M8.54661 0C6.87589 0 5.52148 1.35438 5.52148 3.0251V4.23926H7.03405V3.0251C7.03405 2.18974 7.71125 1.51254 8.54661 1.51254C9.38197 1.51254 10.0592 2.18974 10.0592 3.0251V3.42982C10.0592 3.62398 10.2166 3.78138 10.4107 3.78138H11.2202C11.4143 3.78138 11.5717 3.62398 11.5717 3.42982V3.0251C11.5717 1.35438 10.2173 0 8.54661 0Z" fill="#565656"/>
<path d="M0.428223 6V10.9424C0.428223 11.5256 0.902668 12 1.48584 12H7.13428C7.71745 12 8.19189 11.5256 8.19189 10.9424V6C8.19189 5.41683 7.71745 4.94238 7.13428 4.94238H1.48584C0.902668 4.94238 0.428223 5.41683 0.428223 6ZM4.31006 7.06055C4.89323 7.06055 5.36768 7.53499 5.36768 8.11816C5.36768 8.5781 5.07246 8.97021 4.66162 9.11548V9.53027C4.66162 9.72443 4.50421 9.88184 4.31006 9.88184C4.1159 9.88184 3.9585 9.72443 3.9585 9.53027V9.11548C3.54766 8.97021 3.25244 8.57812 3.25244 8.11816C3.25244 7.53499 3.72689 7.06055 4.31006 7.06055Z" fill="#565656"/>
<path d="M4.31006 8.47266C4.50584 8.47266 4.66455 8.31394 4.66455 8.11816C4.66455 7.92238 4.50584 7.76367 4.31006 7.76367C4.11428 7.76367 3.95557 7.92238 3.95557 8.11816C3.95557 8.31394 4.11428 8.47266 4.31006 8.47266Z" fill="#565656"/>
</g>
<defs>
<clipPath id="clip0_9_2363">
<rect width="12" height="12" fill="white"/>
</clipPath>
</defs>
</svg>
