<svg width="16" height="16" viewBox="0 0 16 16" fill="none" xmlns="http://www.w3.org/2000/svg">
<g clip-path="url(#clip0_9_2303)">
<path d="M2.19276 0.0388482C2.31857 -0.0249577 2.46596 -0.00698424 2.57469 0.0783898L12.2597 7.71892C12.3442 7.78542 12.3963 7.89057 12.3963 7.99931C12.3963 8.10535 12.3433 8.21499 12.2597 8.28149L2.5738 15.9229C2.50909 15.9732 2.42821 16.0002 2.34913 16.0002L2.19186 15.9643C2.06874 15.9058 1.99146 15.7791 1.99146 15.6389V0.362371C1.99146 0.223975 2.06874 0.0954647 2.19276 0.0388482Z" fill="#F6F6F6"/>
<path d="M11.3377 0.0305786H13.7246C13.8818 0.0305786 14.0086 0.193239 14.0086 0.38915V15.6082C14.0086 15.8077 13.8809 15.9704 13.7246 15.9704H11.3377C11.1813 15.9704 11.0537 15.8068 11.0537 15.6082V0.390048C11.0537 0.193239 11.1822 0.0305786 11.3377 0.0305786Z" fill="#F6F6F6"/>
</g>
<defs>
<clipPath id="clip0_9_2303">
<rect width="16" height="16" fill="white"/>
</clipPath>
</defs>
</svg>
