<svg width="16" height="16" viewBox="0 0 16 16" fill="none" xmlns="http://www.w3.org/2000/svg">
<g clip-path="url(#clip0_9_2473)">
<path d="M8.03125 0.00012207C3.63719 0.00012207 0 3.57481 0 7.96887C0 12.3629 3.63719 16.0001 8.03125 16.0001C12.4253 16.0001 16 12.3629 16 7.96887C16 3.57481 12.4253 0.00012207 8.03125 0.00012207ZM10.9038 8.37756L6.64275 12.6386C6.43759 12.8438 6.105 12.8438 5.89984 12.6386L5.31706 12.0558C5.11191 11.8507 5.11191 11.5181 5.31706 11.3129L8.2515 8.3785C8.47716 8.15284 8.47563 7.78647 8.24803 7.56275L5.32338 4.68728C5.11525 4.48265 5.11384 4.14762 5.32022 3.94125L5.90216 3.35931C6.10641 3.15506 6.43722 3.15403 6.64272 3.357L10.9012 7.56272C11.128 7.78662 11.1291 8.15225 10.9038 8.37756Z" fill="#949494"/>
</g>
<defs>
<clipPath id="clip0_9_2473">
<rect width="16" height="16" fill="white"/>
</clipPath>
</defs>
</svg>
